<svg width="1440" height="900" viewBox="0 0 1440 900" fill="none" xmlns="http://www.w3.org/2000/svg">
<path d="M10 0L10 947" stroke="black" stroke-opacity="0.04"/>
<path d="M55 0L55 947" stroke="black" stroke-opacity="0.04"/>
<path d="M100 0L100 947" stroke="black" stroke-opacity="0.04"/>
<path d="M145 0L145 947" stroke="black" stroke-opacity="0.04"/>
<path d="M190 0L190 947" stroke="black" stroke-opacity="0.04"/>
<path d="M235 0L235 947" stroke="black" stroke-opacity="0.04"/>
<path d="M280 0L280 947" stroke="black" stroke-opacity="0.04"/>
<path d="M325 0L325 947" stroke="black" stroke-opacity="0.04"/>
<path d="M370 0L370.001 947" stroke="black" stroke-opacity="0.04"/>
<path d="M415 0L415.001 947" stroke="black" stroke-opacity="0.04"/>
<path d="M460 0L460.001 947" stroke="black" stroke-opacity="0.04"/>
<path d="M505 0L505.001 947" stroke="black" stroke-opacity="0.04"/>
<path d="M550 0L550.001 947" stroke="black" stroke-opacity="0.04"/>
<path d="M595 0L595.001 947" stroke="black" stroke-opacity="0.04"/>
<path d="M640 0L640.001 947" stroke="black" stroke-opacity="0.04"/>
<path d="M685 0L685.001 947" stroke="black" stroke-opacity="0.04"/>
<path d="M730 0L730.001 947" stroke="black" stroke-opacity="0.04"/>
<path d="M775.001 0L775.001 947" stroke="black" stroke-opacity="0.04"/>
<path d="M820.001 0L820.001 947" stroke="black" stroke-opacity="0.04"/>
<path d="M865.001 0L865.001 947" stroke="black" stroke-opacity="0.04"/>
<path d="M910.001 0L910.001 947" stroke="black" stroke-opacity="0.04"/>
<path d="M955.001 0L955.001 947" stroke="black" stroke-opacity="0.04"/>
<path d="M1000 0L1000 947" stroke="black" stroke-opacity="0.04"/>
<path d="M1045 0L1045 947" stroke="black" stroke-opacity="0.04"/>
<path d="M1090 0L1090 947" stroke="black" stroke-opacity="0.04"/>
<path d="M1135 0L1135 947" stroke="black" stroke-opacity="0.04"/>
<path d="M1180 0L1180 947" stroke="black" stroke-opacity="0.04"/>
<path d="M1225 0L1225 947" stroke="black" stroke-opacity="0.04"/>
<path d="M1270 0L1270 947" stroke="black" stroke-opacity="0.04"/>
<path d="M1315 0L1315 947" stroke="black" stroke-opacity="0.04"/>
<path d="M1360 0L1360 947" stroke="black" stroke-opacity="0.04"/>
<path d="M1405 0L1405 947" stroke="black" stroke-opacity="0.04"/>
</svg>
