<svg width="77" height="11" viewBox="0 0 77 11" fill="none" xmlns="http://www.w3.org/2000/svg">
<path d="M5.964 3.196C5.964 2.804 5.81 2.46333 5.502 2.174C5.20333 1.88467 4.77867 1.74 4.228 1.74C3.76133 1.74 3.39267 1.838 3.122 2.034C2.85133 2.22067 2.716 2.47733 2.716 2.804C2.716 2.972 2.74867 3.126 2.814 3.266C2.87933 3.39667 2.99133 3.518 3.15 3.63C3.318 3.73267 3.53267 3.826 3.794 3.91C4.06467 3.994 4.40533 4.07333 4.816 4.148C5.84267 4.33467 6.62667 4.64733 7.168 5.086C7.70933 5.52467 7.98 6.17333 7.98 7.032V7.2C7.98 7.65733 7.896 8.07267 7.728 8.446C7.56933 8.81 7.336 9.12267 7.028 9.384C6.72 9.64533 6.34667 9.846 5.908 9.986C5.46933 10.126 4.97467 10.196 4.424 10.196C3.78 10.196 3.21067 10.1073 2.716 9.93C2.23067 9.74333 1.82467 9.49133 1.498 9.174C1.17133 8.84733 0.924 8.46933 0.756 8.04C0.588 7.60133 0.504 7.12533 0.504 6.612V6.192H2.352V6.528C2.352 7.116 2.52 7.58733 2.856 7.942C3.20133 8.28733 3.73333 8.46 4.452 8.46C5.012 8.46 5.42733 8.33867 5.698 8.096C5.96867 7.85333 6.104 7.564 6.104 7.228C6.104 7.06933 6.076 6.92 6.02 6.78C5.964 6.63067 5.866 6.5 5.726 6.388C5.586 6.26667 5.39467 6.15933 5.152 6.066C4.90933 5.97267 4.60133 5.89333 4.228 5.828C3.73333 5.744 3.28067 5.63667 2.87 5.506C2.45933 5.366 2.1 5.184 1.792 4.96C1.49333 4.736 1.26 4.456 1.092 4.12C0.924 3.784 0.84 3.37333 0.84 2.888V2.804C0.84 2.40267 0.919333 2.034 1.078 1.698C1.246 1.35267 1.47467 1.054 1.764 0.802C2.06267 0.55 2.41733 0.354 2.828 0.213999C3.248 0.0739993 3.71467 0.00399935 4.228 0.00399935C4.80667 0.00399935 5.32 0.0879994 5.768 0.255999C6.216 0.414666 6.58933 0.634 6.888 0.913999C7.196 1.194 7.42467 1.516 7.574 1.88C7.73267 2.244 7.812 2.62667 7.812 3.028V3.532H5.964V3.196ZM9.58027 0.199999H16.1323V1.964H13.7803V8.236H16.1323V10H9.58027V8.236H11.9323V1.964H9.58027V0.199999ZM18.2925 0.199999H24.4805V1.964H20.1405V4.204H24.3125V5.968H20.1405V8.236H24.6485V10H18.2925V0.199999ZM29.3568 5.044H33.5568V10H31.8768V8.908H31.6248C31.5128 9.272 31.2981 9.58 30.9808 9.832C30.6635 10.0747 30.1875 10.196 29.5528 10.196C29.1048 10.196 28.6848 10.112 28.2928 9.944C27.9008 9.776 27.5601 9.52867 27.2708 9.202C26.9815 8.866 26.7528 8.45533 26.5848 7.97C26.4168 7.47533 26.3328 6.90133 26.3328 6.248V3.952C26.3328 3.31733 26.4215 2.75733 26.5988 2.272C26.7855 1.77733 27.0375 1.362 27.3548 1.026C27.6815 0.689999 28.0688 0.437999 28.5168 0.269999C28.9648 0.092666 29.4595 0.00399935 30.0008 0.00399935C30.5608 0.00399935 31.0601 0.0973329 31.4988 0.284C31.9375 0.461333 32.3108 0.713333 32.6188 1.04C32.9268 1.35733 33.1601 1.73533 33.3188 2.174C33.4775 2.60333 33.5568 3.06533 33.5568 3.56V3.728H31.7088V3.56C31.7088 2.972 31.5548 2.52867 31.2468 2.23C30.9481 1.922 30.5235 1.768 29.9728 1.768C29.4501 1.768 29.0208 1.94533 28.6848 2.3C28.3488 2.64533 28.1808 3.24267 28.1808 4.092V6.164C28.1808 7.676 28.7968 8.432 30.0288 8.432C30.5795 8.432 30.9948 8.28733 31.2748 7.998C31.5641 7.69933 31.7088 7.30267 31.7088 6.808H29.3568V5.044ZM35.5211 0.199999H41.7931V1.964H37.3691V4.204H41.7091V5.968H37.3691V10H35.5211V0.199999ZM50.4633 10H48.6153V7.06C48.6153 6.836 48.5547 6.654 48.4333 6.514C48.3213 6.374 48.13 6.304 47.8593 6.304H45.7313V10H43.8833V0.199999H47.6353C48.1393 0.199999 48.5827 0.269999 48.9653 0.409999C49.348 0.55 49.6653 0.746 49.9173 0.998C50.1787 1.24067 50.3747 1.52533 50.5053 1.852C50.6453 2.17867 50.7153 2.52867 50.7153 2.902V3.238C50.7153 3.63933 50.608 4.01733 50.3933 4.372C50.1787 4.71733 49.8473 4.98333 49.3993 5.17V5.422C49.726 5.45933 49.9827 5.58533 50.1693 5.8C50.3653 6.01467 50.4633 6.28533 50.4633 6.612V10ZM45.7313 4.54H47.4953C47.9433 4.54 48.284 4.43733 48.5173 4.232C48.7507 4.01733 48.8673 3.71867 48.8673 3.336V3.168C48.8673 2.84133 48.7507 2.56133 48.5173 2.328C48.284 2.08533 47.9433 1.964 47.4953 1.964H45.7313V4.54ZM52.4416 0.199999H58.9936V1.964H56.6416V8.236H58.9936V10H52.4416V8.236H54.7936V1.964H52.4416V0.199999ZM61.1539 0.199999H67.3419V1.964H63.0019V4.204H67.1739V5.968H63.0019V8.236H67.5099V10H61.1539V0.199999ZM69.2221 0.199999H72.7781C73.9915 0.199999 74.8921 0.484666 75.4801 1.054C76.0681 1.614 76.3621 2.48667 76.3621 3.672V6.528C76.3621 7.71333 76.0681 8.59067 75.4801 9.16C74.8921 9.72 73.9915 10 72.7781 10H69.2221V8.222H70.1461V1.964H69.2221V0.199999ZM72.7781 8.236C73.4221 8.236 73.8701 8.08667 74.1221 7.788C74.3835 7.48 74.5141 7.004 74.5141 6.36V3.672C74.5141 3.112 74.3835 2.68733 74.1221 2.398C73.8701 2.10867 73.4221 1.964 72.7781 1.964H71.9941V8.236H72.7781Z" fill="black"/>
</svg>
